PathFileType  4	(X/Y/Z) subject11/noload/static/trial01/expdata
DataRate	CameraRate	NumFrames	NumMarkers	Units	OrigDataRate	OrigDataStartFrame	OrigNumFrames
100.0	100.0	4	64	mm	100.0	180	287
Frame#	Time	R.Shoulder			L.Shoulder			R.Clavicle			L.Clavicle			R.Biceps			R.Elbow			R.MElbow			R.Forearm			R.Wrist			L.Biceps			L.Elbow			L.MElbow			L.Forearm			L.Wrist			R.ASIS			L.ASIS			R.PSIS			S2			L.PSIS			R.TH1			R.TH2			R.TH3			R.Knee			R.MKnee			R.SH1			R.SH2			R.SH3			R.SH4			R.Ankle			R.MAnkle			R.Heel			R.MT5			R.Toe			L.TH1			L.TH2			L.TH3			L.TH4			L.Knee			L.MKnee			L.SH1			L.SH2			L.SH3			L.Ankle			L.MAnkle			L.Heel			L.MT5			L.Toe			R_HJC			L_HJC			L.HeelGround			L.ToeGround			L.MT5Ground			L.AnkleJoint			L.AnkleJointGround			L.KneeJoint			R.HeelGround			R.ToeGround			R.MT5Ground			R.AnkleJoint			R.AnkleJointGround			R.KneeJoint			MidASIS			MidPSIS			MidClavicle			
		X1	Y1	Z1	X2	Y2	Z2	X3	Y3	Z3	X4	Y4	Z4	X5	Y5	Z5	X6	Y6	Z6	X7	Y7	Z7	X8	Y8	Z8	X9	Y9	Z9	X10	Y10	Z10	X11	Y11	Z11	X12	Y12	Z12	X13	Y13	Z13	X14	Y14	Z14	X15	Y15	Z15	X16	Y16	Z16	X17	Y17	Z17	X18	Y18	Z18	X19	Y19	Z19	X20	Y20	Z20	X21	Y21	Z21	X22	Y22	Z22	X23	Y23	Z23	X24	Y24	Z24	X25	Y25	Z25	X26	Y26	Z26	X27	Y27	Z27	X28	Y28	Z28	X29	Y29	Z29	X30	Y30	Z30	X31	Y31	Z31	X32	Y32	Z32	X33	Y33	Z33	X34	Y34	Z34	X35	Y35	Z35	X36	Y36	Z36	X37	Y37	Z37	X38	Y38	Z38	X39	Y39	Z39	X40	Y40	Z40	X41	Y41	Z41	X42	Y42	Z42	X43	Y43	Z43	X44	Y44	Z44	X45	Y45	Z45	X46	Y46	Z46	X47	Y47	Z47	X48	Y48	Z48	X49	Y49	Z49	X50	Y50	Z50	X51	Y51	Z51	X52	Y52	Z52	X53	Y53	Z53	X54	Y54	Z54	X55	Y55	Z55	X56	Y56	Z56	X57	Y57	Z57	X58	Y58	Z58	X59	Y59	Z59	X60	Y60	Z60	X61	Y61	Z61	X62	Y62	Z62	X63	Y63	Z63	X64	Y64	Z64	

180	1.79000	465.539	1570.648	-258.392	748.773	1566.854	-249.949	571.294	1491.841	-177.616	627.486	1488.729	-175.631	252.503	1509.430	-252.655	150.482	1526.676	-277.337	165.740	1467.174	-345.439	140.264	1396.480	-190.152	122.699	1292.407	-132.693	933.863	1519.691	-241.118	1054.912	1492.514	-236.993	1042.340	1430.265	-303.318	1059.504	1381.289	-136.670	1053.378	1289.852	-73.163	452.186	1032.431	-163.170	709.228	1019.984	-164.847	536.265	1040.073	-371.443	579.028	1017.061	-383.827	625.105	1035.176	-371.862	370.084	799.974	-205.062	370.430	791.200	-313.888	386.807	662.257	-312.510	395.124	529.178	-269.799	525.834	503.266	-258.338	380.717	434.936	-260.264	368.572	323.314	-267.230	382.352	435.536	-344.420	376.655	315.848	-351.816	386.828	112.357	-305.555	471.505	110.419	-280.227	435.726	36.486	-377.737	340.581	39.425	-193.653	431.051	56.648	-78.357	790.970	823.761	-190.057	766.836	695.853	-182.169	801.048	828.398	-296.696	774.819	694.331	-300.441	756.495	532.146	-264.155	624.982	505.497	-281.306	758.434	425.208	-240.275	788.717	445.858	-331.840	796.632	329.900	-346.882	797.060	116.679	-297.328	710.589	111.718	-289.912	755.127	35.527	-384.865	838.316	36.577	-193.748	743.173	58.516	-89.589	467.127	942.256	-261.372	681.952	935.773	-258.461	755.127	0.000	-384.865	743.173	0.000	-89.589	838.316	0.000	-193.748	753.824	114.198	-293.620	753.824	0.000	-293.620	690.738	518.822	-272.731	435.726	0.000	-377.737	431.051	0.000	-78.357	340.581	0.000	-193.653	429.166	111.388	-292.891	429.166	0.000	-292.891	460.479	516.222	-264.068	580.707	1026.207	-164.008	580.685	1037.624	-371.653	599.390	1490.285	-176.624
181	1.80000	465.561	1570.662	-258.055	748.941	1566.850	-249.565	571.229	1491.912	-177.366	627.555	1488.732	-175.400	252.578	1509.366	-252.134	150.423	1526.681	-276.689	165.698	1467.159	-344.876	140.301	1396.421	-189.653	122.825	1292.135	-132.189	933.865	1519.539	-240.834	1054.989	1492.321	-236.814	1042.305	1430.128	-303.234	1059.192	1380.749	-136.634	1053.096	1289.316	-73.270	452.080	1032.444	-163.563	709.270	1019.989	-165.180	536.309	1040.274	-371.838	579.106	1017.225	-384.158	625.147	1035.358	-372.212	370.016	799.945	-205.492	370.424	791.237	-314.247	386.812	662.199	-312.837	395.048	529.267	-270.185	525.490	503.195	-259.059	380.769	434.937	-260.550	368.471	323.346	-267.447	382.248	435.567	-344.690	376.960	315.642	-352.104	386.835	112.318	-305.619	471.498	110.414	-280.244	435.833	36.377	-377.768	340.599	39.529	-193.637	431.110	56.690	-78.363	790.943	823.788	-190.422	766.929	695.740	-182.558	800.945	828.304	-297.000	775.116	694.498	-300.749	756.778	532.160	-264.393	625.172	505.294	-281.842	758.417	425.307	-240.451	788.699	445.800	-332.034	796.623	329.918	-347.072	797.064	116.554	-297.402	710.597	111.718	-289.934	755.172	35.453	-384.866	838.336	36.561	-193.750	743.247	58.496	-89.599	467.134	942.348	-261.844	681.959	935.858	-258.859	755.172	0.000	-384.866	743.247	0.000	-89.599	838.336	0.000	-193.750	753.831	114.136	-293.668	753.831	0.000	-293.668	690.975	518.727	-273.117	435.833	0.000	-377.768	431.110	0.000	-78.363	340.599	0.000	-193.637	429.166	111.366	-292.932	429.166	0.000	-292.932	460.269	516.231	-264.622	580.675	1026.216	-164.371	580.728	1037.816	-372.025	599.392	1490.322	-176.383
182	1.81000	465.554	1570.727	-257.675	749.620	1567.633	-249.147	571.304	1491.996	-177.158	627.557	1488.736	-175.208	252.398	1509.379	-251.582	150.366	1526.638	-276.069	165.544	1467.202	-344.326	140.281	1396.298	-189.065	123.211	1292.002	-131.745	933.931	1519.428	-240.589	1055.084	1492.121	-236.584	1042.206	1430.010	-303.068	1059.313	1380.389	-136.571	1052.896	1288.620	-73.603	452.086	1032.425	-163.955	709.170	1019.952	-165.420	536.299	1040.272	-372.208	579.198	1017.469	-384.468	625.361	1035.471	-372.497	370.075	799.990	-205.940	370.270	791.207	-314.674	386.784	662.186	-313.136	394.913	529.266	-270.497	525.577	503.193	-259.216	380.869	434.927	-260.827	368.405	323.356	-267.748	382.343	435.533	-345.053	376.841	315.525	-352.314	386.842	112.248	-305.658	471.562	110.438	-280.347	435.792	36.338	-377.758	340.568	39.504	-193.597	431.134	56.711	-78.382	791.008	823.760	-190.660	766.898	695.644	-182.895	800.957	828.266	-297.233	775.206	694.430	-300.959	756.966	532.120	-264.568	625.106	505.744	-282.713	758.576	425.339	-240.593	788.680	445.737	-332.205	796.625	329.837	-347.192	797.091	116.518	-297.435	710.596	111.732	-289.943	755.343	35.258	-384.811	838.340	36.545	-193.766	743.271	58.509	-89.619	467.159	942.381	-262.301	681.982	935.900	-259.176	755.343	0.000	-384.811	743.271	0.000	-89.619	838.340	0.000	-193.766	753.843	114.125	-293.689	753.843	0.000	-293.689	691.036	518.932	-273.640	435.792	0.000	-377.758	431.134	0.000	-78.382	340.568	0.000	-193.597	429.202	111.343	-293.002	429.202	0.000	-293.002	460.245	516.229	-264.856	580.628	1026.188	-164.688	580.830	1037.871	-372.353	599.430	1490.366	-176.183
183	1.82000	465.586	1570.828	-257.385	749.752	1567.732	-248.912	571.356	1492.107	-176.987	627.338	1488.868	-175.070	252.537	1509.165	-251.048	150.177	1526.483	-275.504	165.409	1467.152	-343.760	140.293	1396.145	-188.544	123.570	1291.616	-131.215	934.019	1519.341	-240.350	1055.105	1491.939	-236.394	1042.193	1429.861	-302.911	1059.182	1380.178	-136.516	1052.778	1288.510	-73.620	451.921	1032.424	-164.391	709.821	1020.471	-166.568	536.164	1040.395	-372.577	579.303	1017.497	-384.855	625.326	1035.547	-372.813	369.966	799.990	-206.251	370.295	791.159	-315.071	386.757	662.166	-313.524	394.814	529.263	-270.799	525.829	503.258	-259.512	380.800	434.985	-261.063	368.403	323.417	-268.099	382.334	435.554	-345.366	376.909	315.316	-352.558	386.868	112.190	-305.733	471.573	110.380	-280.390	435.809	36.331	-377.767	340.602	39.508	-193.636	431.132	56.711	-78.415	790.937	823.771	-190.862	766.998	695.732	-183.213	801.022	828.214	-297.465	775.269	694.404	-301.271	756.773	532.065	-264.708	625.002	505.975	-283.110	758.541	425.235	-240.729	788.699	445.652	-332.303	796.610	329.822	-347.279	796.695	116.203	-297.504	710.601	111.684	-289.963	755.348	35.253	-384.830	838.362	36.477	-193.780	743.231	58.567	-89.631	467.461	942.333	-262.573	682.301	936.272	-259.806	755.348	0.000	-384.830	743.231	0.000	-89.631	838.362	0.000	-193.780	753.648	113.944	-293.734	753.648	0.000	-293.734	690.888	519.020	-273.909	435.809	0.000	-377.767	431.132	0.000	-78.415	340.602	0.000	-193.636	429.221	111.285	-293.062	429.221	0.000	-293.062	460.322	516.260	-265.155	580.871	1026.447	-165.480	580.745	1037.971	-372.695	599.347	1490.487	-176.029
